<mxfile host="app.diagrams.net" modified="2023-06-28T12:34:37.669Z" agent="Mozilla/5.0 (Windows NT 10.0; Win64; x64) AppleWebKit/537.36 (KHTML, like Gecko) Chrome/114.0.0.0 Safari/537.36" etag="B_SxBv0FzmxnpPepBDSY" version="21.5.1" type="github">
  <diagram name="Trang-1" id="tOcewXO_lovH6hkRrunn">
    <mxGraphModel dx="1434" dy="774" grid="0" gridSize="10" guides="1" tooltips="1" connect="1" arrows="1" fold="1" page="1" pageScale="1" pageWidth="3000" pageHeight="5000" math="0" shadow="0">
      <root>
        <mxCell id="0" />
        <mxCell id="1" parent="0" />
        <mxCell id="fvOnpMfjC2bjnOCLoL4K-9" value="" style="rounded=1;arcSize=0;dashed=1;strokeColor=#000000;fillColor=none;gradientColor=none;dashPattern=8 4;strokeWidth=2;" vertex="1" parent="1">
          <mxGeometry x="329" y="481" width="581" height="534" as="geometry" />
        </mxCell>
        <mxCell id="fvOnpMfjC2bjnOCLoL4K-1" value="" style="shape=image;html=1;verticalAlign=top;verticalLabelPosition=bottom;labelBackgroundColor=#ffffff;imageAspect=0;aspect=fixed;image=https://cdn4.iconfinder.com/data/icons/education-and-school-glyph-24-px/24/Autobus_bus_school_bus_transport_vehicle_-128.png" vertex="1" parent="1">
          <mxGeometry x="167" y="464" width="128" height="128" as="geometry" />
        </mxCell>
        <mxCell id="fvOnpMfjC2bjnOCLoL4K-7" value="" style="shape=image;html=1;verticalAlign=top;verticalLabelPosition=bottom;labelBackgroundColor=#ffffff;imageAspect=0;aspect=fixed;image=https://cdn2.iconfinder.com/data/icons/woothemes/PNG/intruder.png" vertex="1" parent="1">
          <mxGeometry x="348" y="661" width="65" height="65" as="geometry" />
        </mxCell>
        <mxCell id="fvOnpMfjC2bjnOCLoL4K-8" value="" style="shape=image;html=1;verticalAlign=top;verticalLabelPosition=bottom;labelBackgroundColor=#ffffff;imageAspect=0;aspect=fixed;image=https://cdn1.iconfinder.com/data/icons/racing-13/512/Engine-128.png" vertex="1" parent="1">
          <mxGeometry x="535.5" y="901" width="94" height="94" as="geometry" />
        </mxCell>
        <mxCell id="fvOnpMfjC2bjnOCLoL4K-13" value="" style="endArrow=classic;html=1;rounded=0;exitX=1;exitY=0.5;exitDx=0;exitDy=0;entryX=-0.001;entryY=0.087;entryDx=0;entryDy=0;entryPerimeter=0;" edge="1" parent="1" source="fvOnpMfjC2bjnOCLoL4K-1" target="fvOnpMfjC2bjnOCLoL4K-9">
          <mxGeometry width="50" height="50" relative="1" as="geometry">
            <mxPoint x="538" y="726" as="sourcePoint" />
            <mxPoint x="588" y="676" as="targetPoint" />
          </mxGeometry>
        </mxCell>
        <mxCell id="fvOnpMfjC2bjnOCLoL4K-14" value="&lt;font style=&quot;font-size: 14px;&quot;&gt;&lt;b&gt;ECU communication&amp;nbsp;&lt;/b&gt;&lt;b style=&quot;&quot;&gt;in Car&lt;/b&gt;&lt;/font&gt;" style="text;html=1;strokeColor=none;fillColor=none;align=center;verticalAlign=middle;whiteSpace=wrap;rounded=0;" vertex="1" parent="1">
          <mxGeometry x="702" y="495" width="189" height="30" as="geometry" />
        </mxCell>
        <mxCell id="fvOnpMfjC2bjnOCLoL4K-4" value="Car" style="sketch=0;outlineConnect=0;fontColor=#232F3E;gradientColor=none;strokeColor=#232F3E;fillColor=#ffffff;dashed=0;verticalLabelPosition=bottom;verticalAlign=top;align=center;fontSize=12;fontStyle=0;aspect=fixed;shape=mxgraph.aws4.resourceIcon;resIcon=mxgraph.aws4.car;" vertex="1" parent="1">
          <mxGeometry x="554" y="515" width="60" height="60" as="geometry" />
        </mxCell>
        <mxCell id="fvOnpMfjC2bjnOCLoL4K-5" value="Hardware&#xa;board" style="sketch=0;outlineConnect=0;fontColor=#232F3E;gradientColor=none;strokeColor=#232F3E;fillColor=#ffffff;dashed=0;verticalLabelPosition=bottom;verticalAlign=top;align=center;html=1;fontSize=12;fontStyle=0;aspect=fixed;shape=mxgraph.aws4.resourceIcon;resIcon=mxgraph.aws4.hardware_board;" vertex="1" parent="1">
          <mxGeometry x="554" y="783" width="60" height="60" as="geometry" />
        </mxCell>
        <mxCell id="fvOnpMfjC2bjnOCLoL4K-18" value="" style="rounded=0;whiteSpace=wrap;html=1;fillColor=default;strokeWidth=0;strokeColor=#FFFFFF;" vertex="1" parent="1">
          <mxGeometry x="529" y="579" width="120" height="60" as="geometry" />
        </mxCell>
        <mxCell id="fvOnpMfjC2bjnOCLoL4K-17" value="" style="rounded=0;whiteSpace=wrap;html=1;fillColor=default;strokeWidth=0;strokeColor=#FFFFFF;" vertex="1" parent="1">
          <mxGeometry x="524" y="843" width="120" height="37" as="geometry" />
        </mxCell>
        <mxCell id="fvOnpMfjC2bjnOCLoL4K-20" value="" style="endArrow=classic;html=1;rounded=0;entryX=0.5;entryY=0;entryDx=0;entryDy=0;" edge="1" parent="1" source="fvOnpMfjC2bjnOCLoL4K-5" target="fvOnpMfjC2bjnOCLoL4K-8">
          <mxGeometry width="50" height="50" relative="1" as="geometry">
            <mxPoint x="538" y="732" as="sourcePoint" />
            <mxPoint x="588" y="682" as="targetPoint" />
          </mxGeometry>
        </mxCell>
        <mxCell id="fvOnpMfjC2bjnOCLoL4K-21" value="&lt;span style=&quot;font-size: 14px;&quot;&gt;Engine&lt;/span&gt;" style="text;html=1;strokeColor=none;fillColor=none;align=center;verticalAlign=middle;whiteSpace=wrap;rounded=0;" vertex="1" parent="1">
          <mxGeometry x="556" y="977" width="53" height="30" as="geometry" />
        </mxCell>
        <mxCell id="fvOnpMfjC2bjnOCLoL4K-25" value="Message" style="rounded=0;whiteSpace=wrap;html=1;" vertex="1" parent="1">
          <mxGeometry x="553" y="676.5" width="62" height="26" as="geometry" />
        </mxCell>
        <mxCell id="fvOnpMfjC2bjnOCLoL4K-26" value="" style="endArrow=classic;html=1;rounded=0;" edge="1" parent="1" source="fvOnpMfjC2bjnOCLoL4K-4">
          <mxGeometry width="50" height="50" relative="1" as="geometry">
            <mxPoint x="538" y="732" as="sourcePoint" />
            <mxPoint x="584" y="670" as="targetPoint" />
          </mxGeometry>
        </mxCell>
        <mxCell id="fvOnpMfjC2bjnOCLoL4K-27" value="" style="endArrow=classic;html=1;rounded=0;" edge="1" parent="1">
          <mxGeometry width="50" height="50" relative="1" as="geometry">
            <mxPoint x="583" y="712" as="sourcePoint" />
            <mxPoint x="583" y="760" as="targetPoint" />
          </mxGeometry>
        </mxCell>
        <mxCell id="fvOnpMfjC2bjnOCLoL4K-29" value="" style="endArrow=classic;html=1;rounded=0;entryX=1;entryY=0.25;entryDx=0;entryDy=0;exitX=0;exitY=0;exitDx=0;exitDy=0;" edge="1" parent="1" source="fvOnpMfjC2bjnOCLoL4K-25" target="fvOnpMfjC2bjnOCLoL4K-7">
          <mxGeometry width="50" height="50" relative="1" as="geometry">
            <mxPoint x="538" y="732" as="sourcePoint" />
            <mxPoint x="588" y="682" as="targetPoint" />
          </mxGeometry>
        </mxCell>
        <mxCell id="fvOnpMfjC2bjnOCLoL4K-30" value="Message Spoofing" style="rounded=0;whiteSpace=wrap;html=1;" vertex="1" parent="1">
          <mxGeometry x="413" y="691" width="108" height="21" as="geometry" />
        </mxCell>
        <mxCell id="fvOnpMfjC2bjnOCLoL4K-33" value="" style="endArrow=classic;html=1;rounded=0;exitX=1;exitY=0.5;exitDx=0;exitDy=0;entryX=0;entryY=1;entryDx=0;entryDy=0;" edge="1" parent="1" source="fvOnpMfjC2bjnOCLoL4K-30" target="fvOnpMfjC2bjnOCLoL4K-25">
          <mxGeometry width="50" height="50" relative="1" as="geometry">
            <mxPoint x="538" y="732" as="sourcePoint" />
            <mxPoint x="588" y="682" as="targetPoint" />
          </mxGeometry>
        </mxCell>
        <mxCell id="fvOnpMfjC2bjnOCLoL4K-34" value="&lt;span style=&quot;font-size: 14px;&quot;&gt;ECU&lt;/span&gt;" style="text;html=1;strokeColor=none;fillColor=none;align=center;verticalAlign=middle;whiteSpace=wrap;rounded=0;" vertex="1" parent="1">
          <mxGeometry x="510" y="798" width="53" height="30" as="geometry" />
        </mxCell>
        <mxCell id="fvOnpMfjC2bjnOCLoL4K-35" value="&lt;span style=&quot;font-size: 14px;&quot;&gt;ECU&lt;/span&gt;" style="text;html=1;strokeColor=none;fillColor=none;align=center;verticalAlign=middle;whiteSpace=wrap;rounded=0;" vertex="1" parent="1">
          <mxGeometry x="557.5" y="493" width="53" height="30" as="geometry" />
        </mxCell>
        <mxCell id="fvOnpMfjC2bjnOCLoL4K-36" value="&lt;span style=&quot;font-size: 14px;&quot;&gt;Attacker&lt;/span&gt;" style="text;html=1;strokeColor=none;fillColor=none;align=center;verticalAlign=middle;whiteSpace=wrap;rounded=0;" vertex="1" parent="1">
          <mxGeometry x="354" y="730" width="53" height="30" as="geometry" />
        </mxCell>
        <mxCell id="fvOnpMfjC2bjnOCLoL4K-37" value="&lt;span style=&quot;font-size: 14px;&quot;&gt;Car&lt;/span&gt;" style="text;html=1;strokeColor=none;fillColor=none;align=center;verticalAlign=middle;whiteSpace=wrap;rounded=0;" vertex="1" parent="1">
          <mxGeometry x="200.5" y="562" width="53" height="30" as="geometry" />
        </mxCell>
        <mxCell id="fvOnpMfjC2bjnOCLoL4K-40" value="" style="endArrow=none;html=1;rounded=0;exitX=0;exitY=0.5;exitDx=0;exitDy=0;exitPerimeter=0;entryX=1;entryY=0.5;entryDx=0;entryDy=0;" edge="1" parent="1" source="fvOnpMfjC2bjnOCLoL4K-6" target="fvOnpMfjC2bjnOCLoL4K-42">
          <mxGeometry width="50" height="50" relative="1" as="geometry">
            <mxPoint x="538" y="724" as="sourcePoint" />
            <mxPoint x="588" y="674" as="targetPoint" />
          </mxGeometry>
        </mxCell>
        <mxCell id="fvOnpMfjC2bjnOCLoL4K-42" value="Data Processing" style="rounded=0;whiteSpace=wrap;html=1;" vertex="1" parent="1">
          <mxGeometry x="690" y="672" width="70" height="37" as="geometry" />
        </mxCell>
        <mxCell id="fvOnpMfjC2bjnOCLoL4K-43" value="" style="endArrow=none;html=1;rounded=0;exitX=1;exitY=0.5;exitDx=0;exitDy=0;entryX=0;entryY=0.5;entryDx=0;entryDy=0;" edge="1" parent="1" source="fvOnpMfjC2bjnOCLoL4K-25" target="fvOnpMfjC2bjnOCLoL4K-42">
          <mxGeometry width="50" height="50" relative="1" as="geometry">
            <mxPoint x="538" y="724" as="sourcePoint" />
            <mxPoint x="588" y="674" as="targetPoint" />
          </mxGeometry>
        </mxCell>
        <mxCell id="fvOnpMfjC2bjnOCLoL4K-45" value="" style="edgeStyle=orthogonalEdgeStyle;rounded=0;orthogonalLoop=1;jettySize=auto;html=1;" edge="1" parent="1" source="fvOnpMfjC2bjnOCLoL4K-6" target="fvOnpMfjC2bjnOCLoL4K-44">
          <mxGeometry relative="1" as="geometry" />
        </mxCell>
        <mxCell id="fvOnpMfjC2bjnOCLoL4K-6" value="" style="sketch=0;points=[[0.015,0.015,0],[0.985,0.015,0],[0.985,0.985,0],[0.015,0.985,0],[0.25,0,0],[0.5,0,0],[0.75,0,0],[1,0.25,0],[1,0.5,0],[1,0.75,0],[0.75,1,0],[0.5,1,0],[0.25,1,0],[0,0.75,0],[0,0.5,0],[0,0.25,0]];verticalLabelPosition=bottom;html=1;verticalAlign=top;aspect=fixed;align=center;pointerEvents=1;shape=mxgraph.cisco19.rect;prIcon=ips_ids;fillColor=#FAFAFA;strokeColor=#005073;" vertex="1" parent="1">
          <mxGeometry x="826" y="665.5" width="64" height="50" as="geometry" />
        </mxCell>
        <mxCell id="fvOnpMfjC2bjnOCLoL4K-22" value="&lt;span style=&quot;font-size: 14px;&quot;&gt;IDS&lt;/span&gt;" style="text;html=1;strokeColor=none;fillColor=none;align=center;verticalAlign=middle;whiteSpace=wrap;rounded=0;" vertex="1" parent="1">
          <mxGeometry x="831.5" y="635.5" width="53" height="30" as="geometry" />
        </mxCell>
        <mxCell id="fvOnpMfjC2bjnOCLoL4K-44" value="&lt;font color=&quot;#ff0000&quot;&gt;Detect&lt;/font&gt;" style="rounded=0;whiteSpace=wrap;html=1;" vertex="1" parent="1">
          <mxGeometry x="829" y="799.5" width="58" height="27" as="geometry" />
        </mxCell>
        <mxCell id="fvOnpMfjC2bjnOCLoL4K-46" value="" style="endArrow=classic;html=1;rounded=0;exitX=0;exitY=0.5;exitDx=0;exitDy=0;" edge="1" parent="1" source="fvOnpMfjC2bjnOCLoL4K-44" target="fvOnpMfjC2bjnOCLoL4K-5">
          <mxGeometry width="50" height="50" relative="1" as="geometry">
            <mxPoint x="538" y="724" as="sourcePoint" />
            <mxPoint x="588" y="674" as="targetPoint" />
          </mxGeometry>
        </mxCell>
        <mxCell id="fvOnpMfjC2bjnOCLoL4K-47" value="" style="shape=mxgraph.mockup.markup.redX;fillColor=#ff0000;html=1;shadow=0;whiteSpace=wrap;strokeColor=none;" vertex="1" parent="1">
          <mxGeometry x="568" y="765" width="29" height="20" as="geometry" />
        </mxCell>
      </root>
    </mxGraphModel>
  </diagram>
</mxfile>
